<svg width="209" height="42" viewBox="0 0 209 42" fill="none" xmlns="http://www.w3.org/2000/svg">
<path d="M11.9531 27.709C11.9531 27.3574 11.8418 27.0469 11.6191 26.7773C11.4082 26.5078 11.0215 26.2617 10.459 26.0391C9.9082 25.8164 9.12891 25.5938 8.12109 25.3711C7.17188 25.1719 6.28711 24.9141 5.4668 24.5977C4.64648 24.2695 3.93164 23.877 3.32227 23.4199C2.71289 22.9512 2.23828 22.4004 1.89844 21.7676C1.55859 21.123 1.38867 20.3906 1.38867 19.5703C1.38867 18.7734 1.55859 18.0176 1.89844 17.3027C2.25 16.5879 2.75391 15.9551 3.41016 15.4043C4.07812 14.8535 4.88672 14.4199 5.83594 14.1035C6.79688 13.7871 7.88672 13.6289 9.10547 13.6289C10.7812 13.6289 12.2285 13.8926 13.4473 14.4199C14.666 14.9355 15.6035 15.6621 16.2598 16.5996C16.916 17.5254 17.2441 18.5859 17.2441 19.7812H11.7598C11.7598 19.2891 11.666 18.8613 11.4785 18.498C11.291 18.1348 11.0039 17.8535 10.6172 17.6543C10.2305 17.4434 9.7207 17.3379 9.08789 17.3379C8.5957 17.3379 8.16211 17.4258 7.78711 17.6016C7.42383 17.7656 7.13672 17.9941 6.92578 18.2871C6.72656 18.5801 6.62695 18.9199 6.62695 19.3066C6.62695 19.5762 6.68555 19.8223 6.80273 20.0449C6.93164 20.2559 7.125 20.4551 7.38281 20.6426C7.65234 20.8184 7.99805 20.9766 8.41992 21.1172C8.85352 21.2578 9.38086 21.3926 10.002 21.5215C11.3262 21.7676 12.5332 22.1133 13.623 22.5586C14.7246 23.0039 15.6035 23.6191 16.2598 24.4043C16.9277 25.1895 17.2617 26.2266 17.2617 27.5156C17.2617 28.3594 17.0684 29.1328 16.6816 29.8359C16.3066 30.5391 15.7617 31.1543 15.0469 31.6816C14.332 32.209 13.4766 32.6191 12.4805 32.9121C11.4844 33.2051 10.3594 33.3516 9.10547 33.3516C7.3125 33.3516 5.79492 33.0293 4.55273 32.3848C3.31055 31.7402 2.37305 30.9316 1.74023 29.959C1.11914 28.9746 0.808594 27.9668 0.808594 26.9355H5.95898C5.98242 27.5684 6.14062 28.084 6.43359 28.4824C6.73828 28.8809 7.13086 29.1738 7.61133 29.3613C8.0918 29.5371 8.63086 29.625 9.22852 29.625C9.82617 29.625 10.3242 29.543 10.7227 29.3789C11.1211 29.2148 11.4258 28.9922 11.6367 28.7109C11.8477 28.418 11.9531 28.084 11.9531 27.709ZM25.6816 6V33H20.1973V6H25.6816ZM24.9609 22.8223L23.5898 22.8574C23.5898 21.5215 23.7539 20.2969 24.082 19.1836C24.4219 18.0586 24.9023 17.0801 25.5234 16.248C26.1445 15.416 26.8887 14.7715 27.7559 14.3145C28.6348 13.8574 29.6016 13.6289 30.6562 13.6289C31.5938 13.6289 32.4492 13.7637 33.2227 14.0332C33.9961 14.3027 34.6641 14.7305 35.2266 15.3164C35.7891 15.9023 36.2227 16.6699 36.5273 17.6191C36.832 18.5684 36.9844 19.7227 36.9844 21.082V33H31.4648V21.0469C31.4648 20.2383 31.3477 19.6055 31.1133 19.1484C30.8906 18.6914 30.5625 18.3691 30.1289 18.1816C29.707 17.9941 29.1914 17.9004 28.582 17.9004C27.8672 17.9004 27.2754 18.0293 26.8066 18.2871C26.3379 18.5332 25.9688 18.8789 25.6992 19.3242C25.4297 19.7695 25.2363 20.291 25.1191 20.8887C25.0137 21.4863 24.9609 22.1309 24.9609 22.8223ZM39.7793 23.6836V23.3145C39.7793 21.9199 39.9785 20.6367 40.377 19.4648C40.7754 18.2812 41.3613 17.2559 42.1348 16.3887C42.9082 15.5215 43.8574 14.8477 44.9824 14.3672C46.1074 13.875 47.3965 13.6289 48.8496 13.6289C50.3262 13.6289 51.627 13.875 52.752 14.3672C53.8887 14.8477 54.8438 15.5215 55.6172 16.3887C56.3906 17.2559 56.9766 18.2812 57.375 19.4648C57.7734 20.6367 57.9727 21.9199 57.9727 23.3145V23.6836C57.9727 25.0664 57.7734 26.3496 57.375 27.5332C56.9766 28.7051 56.3906 29.7305 55.6172 30.6094C54.8438 31.4766 53.8945 32.1504 52.7695 32.6309C51.6445 33.1113 50.3496 33.3516 48.8848 33.3516C47.4316 33.3516 46.1367 33.1113 45 32.6309C43.8633 32.1504 42.9082 31.4766 42.1348 30.6094C41.3613 29.7305 40.7754 28.7051 40.377 27.5332C39.9785 26.3496 39.7793 25.0664 39.7793 23.6836ZM45.2812 23.3145V23.6836C45.2812 24.4336 45.3398 25.1367 45.457 25.793C45.5859 26.4492 45.791 27.0234 46.0723 27.5156C46.3535 28.0078 46.7227 28.3945 47.1797 28.6758C47.6484 28.9453 48.2168 29.0801 48.8848 29.0801C49.5527 29.0801 50.1152 28.9453 50.5723 28.6758C51.0293 28.3945 51.3984 28.0078 51.6797 27.5156C51.9609 27.0234 52.1602 26.4492 52.2773 25.793C52.4062 25.1367 52.4707 24.4336 52.4707 23.6836V23.3145C52.4707 22.5762 52.4062 21.8848 52.2773 21.2402C52.1602 20.584 51.9609 20.0039 51.6797 19.5C51.3984 18.9961 51.0234 18.6035 50.5547 18.3223C50.0977 18.041 49.5293 17.9004 48.8496 17.9004C48.1934 17.9004 47.6367 18.041 47.1797 18.3223C46.7227 18.6035 46.3535 18.9961 46.0723 19.5C45.791 20.0039 45.5859 20.584 45.457 21.2402C45.3398 21.8848 45.2812 22.5762 45.2812 23.3145ZM66.3574 17.6367V40.3125H60.873V13.9805H65.9883L66.3574 17.6367ZM78.2227 23.2793V23.6484C78.2227 25.0312 78.0645 26.3145 77.748 27.498C77.4316 28.6699 76.957 29.6953 76.3242 30.5742C75.7031 31.4531 74.9355 32.1387 74.0215 32.6309C73.1074 33.1113 72.0469 33.3516 70.8398 33.3516C69.6914 33.3516 68.6953 33.1113 67.8516 32.6309C67.0195 32.1387 66.3164 31.459 65.7422 30.5918C65.1797 29.7129 64.7227 28.7109 64.3711 27.5859C64.0312 26.4492 63.7676 25.2363 63.5801 23.9473V23.2266C63.7676 21.8555 64.0371 20.584 64.3887 19.4121C64.7402 18.2402 65.1973 17.2266 65.7598 16.3711C66.3223 15.5039 67.0195 14.8301 67.8516 14.3496C68.6836 13.8691 69.6738 13.6289 70.8223 13.6289C72.0176 13.6289 73.0781 13.8574 74.0039 14.3145C74.9297 14.7715 75.7031 15.4277 76.3242 16.2832C76.957 17.127 77.4316 18.1406 77.748 19.3242C78.0645 20.5078 78.2227 21.8262 78.2227 23.2793ZM72.7207 23.6484V23.2793C72.7207 22.5059 72.6621 21.7969 72.5449 21.1523C72.4277 20.4961 72.2402 19.9277 71.9824 19.4473C71.7246 18.9551 71.3848 18.5742 70.9629 18.3047C70.541 18.0352 70.0254 17.9004 69.416 17.9004C68.7598 17.9004 68.2031 18.0059 67.7461 18.2168C67.2891 18.4277 66.9199 18.7383 66.6387 19.1484C66.3574 19.5469 66.1523 20.0391 66.0234 20.625C65.9062 21.2109 65.8418 21.8789 65.8301 22.6289V24.5625C65.8418 25.4414 65.9648 26.2266 66.1992 26.918C66.4453 27.5977 66.8262 28.1309 67.3418 28.5176C67.8691 28.8926 68.5723 29.0801 69.4512 29.0801C70.0723 29.0801 70.5879 28.9453 70.998 28.6758C71.4199 28.3945 71.7539 28.002 72 27.498C72.2578 26.9941 72.4395 26.4141 72.5449 25.7578C72.6621 25.1016 72.7207 24.3984 72.7207 23.6484ZM86.6426 17.6367V40.3125H81.1582V13.9805H86.2734L86.6426 17.6367ZM98.5078 23.2793V23.6484C98.5078 25.0312 98.3496 26.3145 98.0332 27.498C97.7168 28.6699 97.2422 29.6953 96.6094 30.5742C95.9883 31.4531 95.2207 32.1387 94.3066 32.6309C93.3926 33.1113 92.332 33.3516 91.125 33.3516C89.9766 33.3516 88.9805 33.1113 88.1367 32.6309C87.3047 32.1387 86.6016 31.459 86.0273 30.5918C85.4648 29.7129 85.0078 28.7109 84.6562 27.5859C84.3164 26.4492 84.0527 25.2363 83.8652 23.9473V23.2266C84.0527 21.8555 84.3223 20.584 84.6738 19.4121C85.0254 18.2402 85.4824 17.2266 86.0449 16.3711C86.6074 15.5039 87.3047 14.8301 88.1367 14.3496C88.9688 13.8691 89.959 13.6289 91.1074 13.6289C92.3027 13.6289 93.3633 13.8574 94.2891 14.3145C95.2148 14.7715 95.9883 15.4277 96.6094 16.2832C97.2422 17.127 97.7168 18.1406 98.0332 19.3242C98.3496 20.5078 98.5078 21.8262 98.5078 23.2793ZM93.0059 23.6484V23.2793C93.0059 22.5059 92.9473 21.7969 92.8301 21.1523C92.7129 20.4961 92.5254 19.9277 92.2676 19.4473C92.0098 18.9551 91.6699 18.5742 91.248 18.3047C90.8262 18.0352 90.3105 17.9004 89.7012 17.9004C89.0449 17.9004 88.4883 18.0059 88.0312 18.2168C87.5742 18.4277 87.2051 18.7383 86.9238 19.1484C86.6426 19.5469 86.4375 20.0391 86.3086 20.625C86.1914 21.2109 86.127 21.8789 86.1152 22.6289V24.5625C86.127 25.4414 86.25 26.2266 86.4844 26.918C86.7305 27.5977 87.1113 28.1309 87.627 28.5176C88.1543 28.8926 88.8574 29.0801 89.7363 29.0801C90.3574 29.0801 90.873 28.9453 91.2832 28.6758C91.7051 28.3945 92.0391 28.002 92.2852 27.498C92.543 26.9941 92.7246 26.4141 92.8301 25.7578C92.9473 25.1016 93.0059 24.3984 93.0059 23.6484Z" fill="#5E2A96"/>
<path d="M120.463 28.4648V20.3086C120.463 19.7344 120.375 19.2422 120.199 18.832C120.023 18.4219 119.748 18.0996 119.373 17.8652C118.998 17.6309 118.512 17.5137 117.914 17.5137C117.41 17.5137 116.971 17.6016 116.596 17.7773C116.232 17.9531 115.951 18.2051 115.752 18.5332C115.564 18.8613 115.471 19.2656 115.471 19.7461H109.986C109.986 18.8906 110.18 18.0938 110.566 17.3555C110.953 16.6172 111.504 15.9668 112.219 15.4043C112.945 14.8418 113.812 14.4082 114.82 14.1035C115.828 13.7871 116.959 13.6289 118.213 13.6289C119.701 13.6289 121.025 13.8809 122.186 14.3848C123.357 14.877 124.283 15.6211 124.963 16.6172C125.643 17.6016 125.982 18.8438 125.982 20.3438V28.3066C125.982 29.4551 126.047 30.3574 126.176 31.0137C126.316 31.6582 126.516 32.2207 126.773 32.7012V33H121.236C120.979 32.4492 120.785 31.7695 120.656 30.9609C120.527 30.1406 120.463 29.3086 120.463 28.4648ZM121.148 21.3984L121.184 24.4219H118.459C117.85 24.4219 117.322 24.498 116.877 24.6504C116.443 24.8027 116.092 25.0137 115.822 25.2832C115.553 25.541 115.354 25.8457 115.225 26.1973C115.107 26.5371 115.049 26.9121 115.049 27.3223C115.049 27.709 115.143 28.0605 115.33 28.377C115.518 28.6816 115.775 28.9219 116.104 29.0977C116.432 29.2734 116.812 29.3613 117.246 29.3613C117.961 29.3613 118.57 29.2207 119.074 28.9395C119.59 28.6582 119.988 28.3184 120.27 27.9199C120.551 27.5098 120.691 27.1289 120.691 26.7773L122.01 29.0625C121.799 29.5312 121.541 30.0176 121.236 30.5215C120.932 31.0137 120.545 31.4766 120.076 31.9102C119.607 32.332 119.039 32.6777 118.371 32.9473C117.715 33.2168 116.924 33.3516 115.998 33.3516C114.803 33.3516 113.719 33.1113 112.746 32.6309C111.773 32.1387 110.994 31.4648 110.408 30.6094C109.834 29.7539 109.547 28.7695 109.547 27.6562C109.547 26.6602 109.729 25.7754 110.092 25.002C110.455 24.2285 111 23.5723 111.727 23.0332C112.465 22.4941 113.391 22.0898 114.504 21.8203C115.617 21.5391 116.918 21.3984 118.406 21.3984H121.148ZM140.66 28.7461V6H146.18V33H141.223L140.66 28.7461ZM128.812 23.7188V23.3496C128.812 21.9082 128.971 20.5957 129.287 19.4121C129.615 18.2168 130.09 17.1914 130.711 16.3359C131.344 15.4688 132.123 14.8008 133.049 14.332C133.975 13.8633 135.035 13.6289 136.23 13.6289C137.332 13.6289 138.293 13.875 139.113 14.3672C139.934 14.8477 140.631 15.5273 141.205 16.4062C141.791 17.2734 142.266 18.2988 142.629 19.4824C142.992 20.6543 143.268 21.9258 143.455 23.2969V23.9297C143.279 25.2422 143.004 26.4668 142.629 27.6035C142.266 28.7402 141.791 29.7422 141.205 30.6094C140.631 31.4648 139.928 32.1387 139.096 32.6309C138.275 33.1113 137.309 33.3516 136.195 33.3516C135 33.3516 133.939 33.1113 133.014 32.6309C132.1 32.1504 131.332 31.4766 130.711 30.6094C130.09 29.7422 129.615 28.7227 129.287 27.5508C128.971 26.3789 128.812 25.1016 128.812 23.7188ZM134.297 23.3496V23.7188C134.297 24.4688 134.35 25.166 134.455 25.8105C134.572 26.4551 134.76 27.0234 135.018 27.5156C135.275 28.0078 135.615 28.3945 136.037 28.6758C136.459 28.9453 136.975 29.0801 137.584 29.0801C138.404 29.0801 139.078 28.8926 139.605 28.5176C140.133 28.1309 140.531 27.5977 140.801 26.918C141.07 26.2383 141.211 25.4473 141.223 24.5449V22.6992C141.223 21.9492 141.146 21.2754 140.994 20.6777C140.842 20.0801 140.613 19.5762 140.309 19.166C140.016 18.7559 139.646 18.4453 139.201 18.2344C138.756 18.0117 138.229 17.9004 137.619 17.9004C137.021 17.9004 136.512 18.041 136.09 18.3223C135.668 18.5918 135.322 18.9727 135.053 19.4648C134.795 19.957 134.602 20.5371 134.473 21.2051C134.355 21.8613 134.297 22.5762 134.297 23.3496ZM155.338 17.9707V33H149.854V13.9805H155.004L155.338 17.9707ZM154.635 22.8223L153.246 22.8574C153.246 21.5215 153.404 20.2969 153.721 19.1836C154.049 18.0586 154.523 17.0801 155.145 16.248C155.766 15.416 156.533 14.7715 157.447 14.3145C158.373 13.8574 159.439 13.6289 160.646 13.6289C161.49 13.6289 162.258 13.7578 162.949 14.0156C163.641 14.2617 164.232 14.6543 164.725 15.1934C165.229 15.7207 165.615 16.4121 165.885 17.2676C166.154 18.1113 166.289 19.125 166.289 20.3086V33H160.805V20.9766C160.805 20.1328 160.699 19.4941 160.488 19.0605C160.289 18.6152 159.996 18.3105 159.609 18.1465C159.223 17.9824 158.76 17.9004 158.221 17.9004C157.635 17.9004 157.113 18.0293 156.656 18.2871C156.211 18.5332 155.836 18.8789 155.531 19.3242C155.227 19.7695 154.998 20.291 154.846 20.8887C154.705 21.4863 154.635 22.1309 154.635 22.8223ZM165.727 22.541L163.986 22.6816C163.986 21.3926 164.139 20.1973 164.443 19.0957C164.748 17.9941 165.205 17.0391 165.814 16.2305C166.424 15.4102 167.18 14.7715 168.082 14.3145C168.996 13.8574 170.057 13.6289 171.264 13.6289C172.154 13.6289 172.963 13.7578 173.689 14.0156C174.428 14.2734 175.061 14.6895 175.588 15.2637C176.127 15.8379 176.543 16.5938 176.836 17.5312C177.129 18.457 177.275 19.5938 177.275 20.9414V33H171.756V20.9414C171.756 20.1094 171.65 19.4766 171.439 19.043C171.24 18.6094 170.947 18.3105 170.561 18.1465C170.186 17.9824 169.734 17.9004 169.207 17.9004C168.621 17.9004 168.111 18.0234 167.678 18.2695C167.244 18.5039 166.881 18.832 166.588 19.2539C166.295 19.6641 166.078 20.1504 165.938 20.7129C165.797 21.2754 165.727 21.8848 165.727 22.541ZM186.732 13.9805V33H181.23V13.9805H186.732ZM180.896 9.05859C180.896 8.26172 181.178 7.61133 181.74 7.10742C182.303 6.5918 183.041 6.33398 183.955 6.33398C184.869 6.33398 185.607 6.5918 186.17 7.10742C186.744 7.61133 187.031 8.26172 187.031 9.05859C187.031 9.84375 186.744 10.4941 186.17 11.0098C185.607 11.5137 184.869 11.7656 183.955 11.7656C183.041 11.7656 182.303 11.5137 181.74 11.0098C181.178 10.4941 180.896 9.84375 180.896 9.05859ZM196.066 18.041V33H190.564V13.9805H195.732L196.066 18.041ZM195.346 22.8223L193.975 22.8574C193.975 21.4277 194.15 20.1445 194.502 19.0078C194.854 17.8711 195.352 16.9043 195.996 16.1074C196.652 15.2988 197.432 14.6836 198.334 14.2617C199.248 13.8398 200.256 13.6289 201.357 13.6289C202.248 13.6289 203.062 13.7578 203.801 14.0156C204.539 14.2734 205.172 14.6895 205.699 15.2637C206.238 15.8262 206.648 16.5762 206.93 17.5137C207.211 18.4395 207.352 19.582 207.352 20.9414V33H201.832V20.9238C201.832 20.127 201.721 19.5117 201.498 19.0781C201.275 18.6445 200.947 18.3398 200.514 18.1641C200.092 17.9883 199.576 17.9004 198.967 17.9004C198.322 17.9004 197.771 18.0293 197.314 18.2871C196.857 18.5332 196.482 18.8789 196.189 19.3242C195.896 19.7695 195.68 20.291 195.539 20.8887C195.41 21.4863 195.346 22.1309 195.346 22.8223Z" fill="white"/>
</svg>
